<?xml version="1.0" encoding="UTF-8"?>
<svg id="Layer_1" data-name="Layer 1" xmlns="http://www.w3.org/2000/svg" viewBox="0 0 309.02 309.02">
  <defs>
    <style>
      .cls-1 {
        fill: #fff;
      }

      .cls-1, .cls-2 {
        stroke-width: 0px;
      }

      .cls-2 {
        fill: #231f20;
      }
    </style>
  </defs>
  <circle class="cls-1" cx="154.51" cy="154.51" r="154.51"/>
  <polygon class="cls-2" points="89.15 176.16 128.49 231.55 159.31 231.55 106.63 157.34 89.15 176.16"/>
  <polygon class="cls-2" points="58.38 191.86 83.68 166.16 99.53 148.78 166.65 77.48 134.3 77.48 58.38 156.51 58.38 77.48 29.77 77.48 29.77 231.52 58.38 231.52 58.38 191.86"/>
  <path class="cls-2" d="M243.85,180.99c.77-.31,1.54-.63,2.29-.97,9.75-4.4,17.27-10.63,22.56-18.7,5.28-8.07,7.92-17.75,7.92-29.05s-2.64-21.27-7.92-29.49c-5.28-8.21-12.8-14.49-22.56-18.81-9.76-4.33-21.46-6.49-35.1-6.49h-30.09l-22.4,24.21h51.17c12.62,0,22.12,2.68,28.5,8.03,6.38,5.36,9.57,12.87,9.57,22.56s-3.19,17.24-9.57,22.67c-6.38,5.43-15.88,8.14-28.5,8.14h-8.35s0,0,0,0h-.27l47.35,68.44h30.81l-35.41-50.52Z"/>
  <path class="cls-2" d="M229.7,130.18c-.23-8.91-6.78-16.68-15.65-18.35-4.39-.82-8.66-.2-12.65,1.9-5.33,2.8-8.31,7.4-9.86,13.42h-49.84v8.4h8.57v13.73h6.35v-8.66s.04,0,.06,0v-.1h1.48c.6-.03,1.17-.04,1.73,0h2.4v8.77h6.07v-13.17h23.37c6.05,11.41,13.89,15.77,23.66,13.26,8.44-2.17,14.52-10.33,14.29-19.19ZM210.45,141.46c-5.92.03-10.68-4.73-10.71-10.71-.03-6.04,4.81-10.85,10.89-10.83,5.75.03,10.68,5.06,10.64,10.87-.04,5.88-4.86,10.63-10.82,10.66Z"/>
</svg>