<?xml version="1.0" encoding="UTF-8"?>
<svg id="Layer_1" data-name="Layer 1" xmlns="http://www.w3.org/2000/svg" viewBox="0 0 731.7 556.18">
  <defs>
    <style>
      .cls-1 {
        fill: #231f20;
        stroke-width: 0px;
      }
    </style>
  </defs>
  <polygon class="cls-1" points="161.89 269.06 269.18 420.08 353.19 420.08 209.57 217.76 161.89 269.06"/>
  <polygon class="cls-1" points="78 311.86 147 241.8 190.2 194.4 373.2 0 285 0 78 215.48 78 0 0 0 0 420 78 420 78 311.86"/>
  <path class="cls-1" d="M583.69,282.25c2.11-.85,4.19-1.72,6.24-2.65,26.6-12,47.1-29,61.5-51,14.4-21.99,21.6-48.39,21.6-79.2s-7.2-57.99-21.6-80.4c-14.4-22.4-34.9-39.5-61.5-51.3C563.32,5.91,531.43,0,494.23,0h-82.05l-61.08,66h139.53c34.4,0,60.3,7.3,77.7,21.9,17.4,14.61,26.1,35.1,26.1,61.5s-8.7,47.01-26.1,61.8c-17.4,14.8-43.3,22.2-77.7,22.2h-22.77s0,0,0,0h-.75l129.12,186.6h84l-96.54-137.75Z"/>
  <path class="cls-1" d="M545.13,143.69c-.62-24.3-18.49-45.49-42.66-50.02-11.97-2.25-23.6-.54-34.48,5.17-14.52,7.63-22.66,20.18-26.88,36.59h-135.89v22.91h23.38v37.43h17.31v-23.61c.06,0,.11,0,.17-.01v-.28h4.04c1.64-.08,3.2-.1,4.72,0h6.54v23.9h16.55v-35.9h63.71c16.49,31.11,37.88,43,64.51,36.15,23.02-5.92,39.58-28.16,38.97-52.32ZM492.64,174.44c-16.14.09-29.12-12.89-29.21-29.19-.09-16.46,13.12-29.59,29.69-29.52,15.68.07,29.13,13.81,29.02,29.64-.11,16.04-13.24,28.98-29.49,29.07Z"/>
</svg>